<?xml version="1.0" standalone="no"?>
<!DOCTYPE svg PUBLIC "-//W3C//DTD SVG 20010904//EN"
 "http://www.w3.org/TR/2001/REC-SVG-20010904/DTD/svg10.dtd">
<svg version="1.0" xmlns="http://www.w3.org/2000/svg"
 width="283.000000pt" height="166.000000pt" viewBox="0 0 283.000000 166.000000"
 preserveAspectRatio="xMidYMid meet">
<metadata>
Created by potrace 1.16, written by Peter Selinger 2001-2019
</metadata>
<g transform="translate(0.000000,166.000000) scale(0.100000,-0.100000)"
fill="#000000" stroke="none">
<path d="M704 1345 c-148 -27 -276 -120 -342 -249 l-37 -71 0 -135 c0 -134 0
-136 34 -200 63 -122 173 -213 296 -245 67 -17 168 -19 235 -5 70 16 168 70
221 123 59 58 116 170 129 251 5 33 13 63 17 66 16 14 108 40 142 40 19 0 60
-7 92 -16 l56 -16 11 -65 c46 -277 313 -449 587 -378 271 71 416 384 296 640
-128 274 -489 352 -728 156 -46 -38 -118 -147 -137 -211 -10 -30 -19 -60 -21
-67 -3 -9 -12 -9 -39 2 -47 20 -176 20 -222 0 -44 -18 -50 -15 -58 29 -12 61
-75 174 -127 226 -61 60 -172 116 -249 125 -30 3 -62 8 -70 10 -8 1 -47 -3
-86 -10z m241 -98 c69 -32 163 -123 194 -188 45 -93 49 -210 11 -312 -21 -55
-90 -144 -137 -177 -131 -91 -323 -95 -448 -10 -134 91 -205 250 -176 393 16
81 46 142 95 195 51 56 86 80 155 109 48 20 70 23 151 21 79 -3 105 -8 155
-31z m1241 0 c103 -48 190 -153 219 -266 20 -73 19 -123 -3 -196 -35 -112
-113 -204 -217 -252 -78 -36 -206 -44 -287 -17 -187 62 -302 249 -269 437 25
142 108 243 251 304 47 20 69 23 150 21 79 -3 105 -8 156 -31z"/>
<path d="M645 1169 c-98 -52 -156 -141 -171 -265 -6 -44 -4 -52 12 -58 25 -10
44 18 44 63 0 47 39 128 79 165 17 17 52 41 79 55 26 15 47 33 47 41 0 23 -46
23 -90 -1z"/>
</g>
</svg>
